<svg xmlns="http://www.w3.org/2000/svg" xmlns:xlink="http://www.w3.org/1999/xlink" xml:space="preserve" version="1.1" style="shape-rendering:geometricPrecision;text-rendering:geometricPrecision;image-rendering:optimizeQuality;" viewBox="0 0 60000 75000" x="0px" y="0px" fill-rule="evenodd" clip-rule="evenodd"><defs><style type="text/css">
   
    .fil0 {fill:black;fill-rule:nonzero}
   
  </style></defs><g><path class="fil0" d="M27068 1193c351,0 670,131 900,341 230,211 373,502 373,824 0,322 -142,613 -373,824 -230,211 -549,341 -900,341 -351,0 -670,-131 -900,-341 -230,-211 -373,-502 -373,-824 0,-322 142,-613 373,-824 230,-211 549,-341 900,-341zm-7704 16788c244,0 465,91 625,237 160,146 259,349 259,572 0,223 -99,426 -259,572 -160,146 -381,237 -625,237 -244,0 -465,-91 -625,-237 -160,-146 -259,-349 -259,-572 0,-223 99,-426 259,-572 160,-146 381,-237 625,-237zm20869 31039c-316,0 -601,-117 -808,-307 -207,-189 -335,-451 -335,-740 0,-289 128,-551 335,-740 207,-189 493,-307 808,-307 316,0 601,117 808,307 207,189 335,451 335,740 0,289 -128,551 -335,740 -207,189 -493,307 -808,307zm-350 -726c90,82 213,133 350,133 137,0 260,-51 350,-133 90,-82 145,-195 145,-320 0,-125 -55,-238 -145,-320 -90,-82 -213,-133 -350,-133 -137,0 -260,51 -350,133 -90,82 -145,195 -145,320 0,125 55,238 145,320zm11646 -6285c-529,0 -1008,-196 -1355,-514 -347,-318 -561,-756 -561,-1241 0,-485 215,-924 561,-1241 347,-318 826,-514 1355,-514 529,0 1008,196 1355,514 347,318 561,756 561,1241 0,485 -215,923 -561,1241 -347,318 -826,514 -1355,514zm-862 -966c220,202 525,327 862,327 336,0 641,-125 862,-327 220,-202 357,-481 357,-789 0,-308 -136,-587 -357,-789 -220,-202 -525,-327 -862,-327 -336,0 -641,125 -862,327 -220,202 -357,481 -357,789 0,308 136,587 357,789zm-3872 -2530c-465,0 -885,-173 -1190,-451 -305,-279 -493,-664 -493,-1090 0,-426 188,-811 493,-1090 305,-279 725,-451 1190,-451 465,0 885,173 1190,451 305,279 493,664 493,1090 0,426 -188,811 -493,1090 -305,279 -725,451 -1190,451zm-696 -904c178,163 424,264 696,264 272,0 518,-101 696,-264 178,-163 288,-389 288,-638 0,-249 -110,-474 -288,-638 -178,-163 -424,-264 -696,-264 -272,0 -518,101 -696,264 -178,163 -288,389 -288,638 0,249 110,474 288,638zm1270 6469c-465,0 -885,-173 -1190,-451 -305,-279 -493,-664 -493,-1090 0,-426 188,-811 493,-1090 305,-279 725,-451 1190,-451 465,0 885,173 1190,451 305,279 493,664 493,1090 0,426 -188,811 -493,1090 -305,279 -725,451 -1190,451zm-696 -904c178,163 424,264 696,264 272,0 518,-101 696,-264 178,-163 288,-389 288,-638 0,-249 -110,-474 -288,-638 -178,-163 -424,-264 -696,-264 -272,0 -518,101 -696,264 -178,163 -288,389 -288,638 0,249 110,474 288,638zm-1936 4198c-387,0 -737,-144 -990,-376 -253,-232 -410,-553 -410,-907 0,-354 157,-675 410,-907 253,-232 603,-376 990,-376 387,0 737,144 990,376 253,232 410,553 410,907 0,354 -157,675 -410,907 -253,232 -603,376 -990,376zm-496 -828c127,116 302,188 496,188 194,0 369,-72 496,-188 127,-116 205,-277 205,-454 0,-177 -79,-338 -205,-454 -127,-116 -302,-188 -496,-188 -194,0 -369,72 -496,188 -127,116 -205,277 -205,454 0,177 79,338 205,454zm5548 1526c-465,0 -885,-173 -1190,-451 -305,-279 -493,-664 -493,-1090 0,-426 188,-811 493,-1090 305,-279 725,-451 1190,-451 465,0 885,173 1190,451 305,279 493,664 493,1090 0,426 -188,811 -493,1090 -305,279 -725,451 -1190,451zm-696 -904c178,163 424,264 696,264 272,0 518,-101 696,-264 178,-163 288,-389 288,-638 0,-249 -110,-474 -288,-638 -178,-163 -424,-264 -696,-264 -272,0 -518,101 -696,264 -178,163 -288,389 -288,638 0,249 110,474 288,638zm-5476 4256c-387,0 -737,-144 -990,-376 -253,-232 -410,-553 -410,-907 0,-354 157,-675 410,-907 253,-232 603,-376 990,-376 387,0 737,144 990,376 253,232 410,553 410,907 0,354 -157,675 -410,907 -253,232 -603,376 -990,376zm-496 -828c127,116 302,188 496,188 194,0 369,-72 496,-188 127,-116 205,-277 205,-454 0,-177 -79,-338 -205,-454 -127,-116 -302,-188 -496,-188 -194,0 -369,72 -496,188 -127,116 -205,277 -205,454 0,177 79,338 205,454zm5285 2726c-529,0 -1008,-196 -1355,-514 -347,-318 -561,-756 -561,-1241 0,-485 215,-923 561,-1241 347,-318 826,-514 1355,-514 529,0 1008,196 1355,514 347,318 561,756 561,1241 0,485 -215,924 -561,1241 -347,318 -826,514 -1355,514zm-862 -966c220,202 525,327 862,327 336,0 641,-125 862,-327 220,-202 357,-481 357,-789 0,-308 -136,-587 -357,-789 -220,-202 -525,-327 -862,-327 -336,0 -641,125 -862,327 -220,202 -357,481 -357,789 0,308 136,587 357,789zm-3991 3499c-465,0 -885,-173 -1190,-451 -305,-279 -493,-664 -493,-1090 0,-426 188,-811 493,-1090 305,-279 725,-451 1190,-451 465,0 885,173 1190,451 305,279 493,664 493,1090 0,426 -188,811 -493,1090 -305,279 -725,451 -1190,451zm-696 -904c178,163 424,264 696,264 272,0 518,-101 696,-264 178,-163 288,-389 288,-638 0,-249 -110,-474 -288,-638 -178,-163 -424,-264 -696,-264 -272,0 -518,101 -696,264 -178,163 -288,389 -288,638 0,249 110,474 288,638zm-4829 2691c-387,0 -737,-144 -990,-376 -253,-232 -410,-553 -410,-907 0,-354 157,-675 410,-907 253,-232 603,-376 990,-376 387,0 737,144 990,376 253,232 410,553 410,907 0,354 -157,675 -410,907 -253,232 -603,376 -990,376zm-496 -828c127,116 302,188 496,188 194,0 369,-72 496,-188 127,-116 205,-277 205,-454 0,-177 -79,-338 -205,-454 -127,-116 -302,-188 -496,-188 -194,0 -369,72 -496,188 -127,116 -205,277 -205,454 0,177 79,338 205,454zm-10533 -14048c-142,0 -271,-53 -365,-138 -93,-85 -151,-204 -151,-334 0,-130 58,-249 151,-334 93,-86 222,-138 365,-138 142,0 271,53 365,138 93,85 151,204 151,334 0,130 -58,249 -151,334 -93,86 -222,138 -365,138zm-77 -402c20,18 47,29 77,29 30,0 57,-11 77,-29 20,-18 32,-43 32,-70 0,-27 -12,-52 -32,-70 -20,-18 -47,-29 -77,-29 -30,0 -57,11 -77,29 -20,18 -32,43 -32,70 0,27 12,52 32,70zm3760 613c-184,0 -351,-68 -472,-179 -121,-111 -195,-263 -195,-432 0,-169 75,-322 195,-432 121,-111 288,-179 472,-179 184,0 351,68 472,179 121,111 195,263 195,432 0,169 -75,322 -195,432 -121,111 -288,179 -472,179zm-143 -480c36,33 87,54 143,54 56,0 106,-21 143,-54 37,-33 59,-80 59,-131 0,-51 -23,-97 -59,-131 -36,-33 -87,-54 -143,-54 -56,0 -106,21 -143,54 -37,33 -59,80 -59,131 0,51 23,97 59,131zm3733 -139c-226,0 -431,-84 -579,-220 -148,-136 -240,-323 -240,-530 0,-207 92,-394 240,-530 148,-136 353,-220 579,-220 226,0 431,84 579,220 148,136 240,323 240,530 0,207 -92,394 -240,530 -148,136 -353,220 -579,220zm-209 -559c53,49 127,79 209,79 81,0 155,-30 209,-79 53,-49 86,-116 86,-191 0,-75 -33,-142 -86,-191 -53,-49 -127,-79 -209,-79 -81,0 -155,30 -209,79 -53,49 -86,116 -86,191 0,75 33,142 86,191zm3480 -855c-268,0 -510,-99 -686,-260 -176,-161 -284,-383 -284,-628 0,-245 109,-467 284,-628 176,-161 418,-260 686,-260 268,0 510,99 686,260 176,161 284,383 284,628 0,245 -109,467 -284,628 -176,161 -418,260 -686,260zm-275 -637c70,64 167,104 275,104 107,0 204,-40 275,-104 70,-64 114,-153 114,-251 0,-98 -43,-187 -114,-251 -70,-64 -167,-104 -275,-104 -107,0 -204,40 -275,104 -70,64 -114,153 -114,251 0,98 43,187 114,251zm3028 -1466c-310,0 -590,-115 -793,-301 -203,-186 -329,-443 -329,-726 0,-284 126,-540 329,-726 203,-186 483,-301 793,-301 310,0 590,115 793,301 203,186 329,443 329,726 0,284 -126,540 -329,726 -203,186 -483,301 -793,301zm-340 -715c87,80 207,129 340,129 133,0 253,-49 340,-129 87,-80 141,-190 141,-312 0,-122 -54,-232 -141,-312 -87,-80 -207,-129 -340,-129 -133,0 -253,49 -340,129 -87,80 -141,190 -141,312 0,122 54,232 141,312zm2410 -1937c-351,0 -670,-130 -900,-341 -230,-211 -373,-502 -373,-824 0,-322 142,-613 373,-824 230,-211 549,-341 900,-341 351,0 670,131 900,341 230,211 373,502 373,824 0,322 -142,613 -373,824 -230,211 -549,341 -900,341zm-406 -794c104,95 248,154 406,154 159,0 302,-59 406,-154 104,-95 168,-227 168,-372 0,-145 -64,-277 -168,-372 -104,-95 -248,-154 -406,-154 -159,0 -302,59 -406,154 -104,95 -168,227 -168,372 0,145 64,277 168,372zm-20785 7040c-101,0 -192,-37 -258,-98 -66,-60 -107,-144 -107,-236 0,-92 41,-176 107,-236 66,-60 157,-98 258,-98 101,0 192,37 258,98 66,60 107,144 107,236 0,92 -41,176 -107,236 -66,60 -157,98 -258,98zm3116 1614c-136,0 -260,-51 -350,-133 -89,-82 -145,-195 -145,-320 0,-125 55,-238 145,-320 89,-82 213,-133 349,-133 136,0 260,51 349,133 89,82 145,195 145,320 0,125 -55,238 -145,320 -89,82 -213,133 -349,133zm-67 -391c17,16 41,26 67,26 26,0 50,-10 67,-26 17,-16 28,-38 28,-62 0,-24 -11,-46 -28,-62 -17,-16 -41,-26 -67,-26 -26,0 -50,10 -67,26 -17,16 -28,38 -28,62 0,24 11,46 28,62zm3456 1376c-172,0 -328,-64 -441,-167 -113,-103 -183,-246 -183,-404 0,-158 70,-301 183,-404 113,-103 269,-167 441,-167 172,0 328,64 441,167 113,103 183,246 183,404 0,158 -70,301 -183,404 -113,103 -269,167 -441,167zm-124 -458c32,29 75,47 124,47 48,0 92,-18 124,-47 32,-29 51,-69 51,-113 0,-44 -20,-84 -51,-113 -32,-29 -75,-47 -124,-47 -48,0 -92,18 -124,47 -32,29 -51,69 -51,113 0,44 20,84 51,113zm3635 778c-208,0 -397,-77 -533,-202 -136,-125 -221,-298 -221,-488 0,-381 337,-690 754,-690 416,0 754,309 754,690 0,191 -84,363 -221,488 -136,125 -325,202 -533,202zm-180 -525c46,42 110,68 180,68 70,0 134,-26 180,-68 46,-42 75,-101 75,-165 0,-129 -114,-234 -255,-234 -141,0 -255,105 -255,234 0,65 29,123 75,165zm3662 180c-244,0 -465,-91 -625,-237 -160,-146 -259,-349 -259,-572 0,-223 99,-426 259,-572 160,-146 381,-237 625,-237 244,0 465,91 625,237 160,146 259,349 259,572 0,223 -99,426 -259,572 -160,146 -381,237 -625,237zm-237 -592c61,55 144,90 237,90 93,0 176,-34 237,-90 61,-55 98,-132 98,-217 0,-85 -37,-161 -98,-217 -61,-55 -144,-90 -237,-90 -93,0 -176,34 -237,90 -61,55 -98,132 -98,217 0,85 37,161 98,217zm3536 -409c-280,0 -533,-104 -717,-272 -183,-168 -297,-400 -297,-656 0,-256 113,-488 297,-656 183,-168 437,-272 717,-272 280,0 533,104 717,272 183,168 297,400 297,656 0,256 -113,488 -297,656 -183,168 -437,272 -717,272zm-293 -659c75,69 179,111 293,111 115,0 218,-43 293,-111 75,-69 121,-164 121,-269 0,-105 -46,-200 -121,-269 -75,-69 -179,-111 -293,-111 -115,0 -218,43 -293,111 -75,69 -121,164 -121,269 0,105 46,200 121,269zm5809 257c-316,0 -601,-117 -808,-307 -207,-189 -335,-451 -335,-740 0,-289 128,-551 335,-740 207,-189 493,-307 808,-307 316,0 601,117 808,307 207,189 335,451 335,740 0,289 -128,551 -335,740 -207,189 -493,307 -808,307zm-350 -726c90,82 213,133 350,133 137,0 260,-51 350,-133 90,-82 145,-195 145,-320 0,-125 -55,-238 -145,-320 -90,-82 -213,-133 -350,-133 -137,0 -260,51 -350,133 -90,82 -145,195 -145,320 0,125 55,238 145,320zm323 -2610c-351,0 -670,-131 -900,-341 -230,-211 -373,-502 -373,-824 0,-322 142,-613 373,-824 230,-211 549,-341 900,-341 351,0 670,131 900,341 230,211 373,502 373,824 0,322 -142,613 -373,824 -230,211 -549,341 -900,341zm-406 -794c104,95 248,154 406,154 159,0 302,-59 406,-154 104,-95 168,-227 168,-372 0,-145 -64,-277 -168,-372 -104,-95 -248,-154 -406,-154 -159,0 -302,59 -406,154 -104,95 -168,227 -168,372 0,145 64,277 168,372zm-24986 2900c-101,0 -192,-37 -258,-98 -66,-60 -107,-144 -107,-236 0,-92 41,-176 107,-236 66,-60 157,-98 258,-98 101,0 192,37 258,98 66,60 107,144 107,236 0,92 -41,176 -107,236 -66,60 -157,98 -258,98zm2706 2118c-132,0 -252,-49 -338,-128 -87,-79 -140,-189 -140,-310 0,-121 54,-230 140,-310 87,-79 206,-128 338,-128 132,0 252,49 338,128 87,79 140,189 140,310 0,121 -54,230 -140,310 -87,79 -206,128 -338,128zm-60 -383c15,14 37,23 60,23 24,0 45,-9 60,-23 15,-14 25,-34 25,-55 0,-22 -10,-41 -25,-55 -15,-14 -37,-23 -60,-23 -24,0 -45,9 -60,23 -15,14 -25,34 -25,55 0,22 10,41 25,55zm3123 2011c-163,0 -311,-61 -418,-159 -107,-98 -173,-233 -173,-383 0,-150 66,-285 173,-383 107,-98 255,-159 418,-159 163,0 311,61 418,159 107,98 173,234 173,383 0,150 -66,285 -173,383 -107,98 -255,159 -418,159zm-110 -441c28,26 67,42 110,42 43,0 82,-16 110,-42 28,-26 45,-61 45,-101 0,-39 -17,-75 -45,-101 -28,-26 -67,-42 -110,-42 -43,0 -82,16 -110,42 -28,26 -45,61 -45,101 0,39 17,75 45,101zm3427 1526c-195,0 -371,-72 -499,-189 -128,-117 -207,-278 -207,-457 0,-178 79,-340 207,-457 128,-117 304,-189 499,-189 195,0 371,72 499,189 128,117 207,278 207,457 0,178 -79,340 -207,457 -128,117 -304,189 -499,189zm-159 -500c41,37 97,60 159,60 62,0 118,-23 159,-60 41,-37 66,-89 66,-146 0,-57 -25,-108 -66,-146 -41,-37 -97,-60 -159,-60 -62,0 -118,23 -159,60 -41,37 -66,89 -66,146 0,57 25,109 66,146zm3618 1006c-226,0 -431,-84 -579,-220 -148,-136 -240,-323 -240,-530 0,-207 92,-394 240,-530 148,-136 353,-220 579,-220 226,0 431,84 579,220 148,136 240,323 240,530 0,207 -92,394 -240,530 -148,136 -353,220 -579,220zm-209 -559c53,49 127,79 209,79 81,0 155,-30 209,-79 53,-49 86,-116 86,-191 0,-75 -33,-142 -86,-191 -53,-49 -127,-79 -209,-79 -81,0 -155,30 -209,79 -53,49 -86,116 -86,191 0,75 33,142 86,191zm3689 481c-257,0 -490,-96 -659,-250 -169,-154 -273,-368 -273,-604 0,-236 104,-449 273,-604 169,-155 402,-250 659,-250 257,0 490,96 659,250 169,155 273,368 273,604 0,236 -104,449 -273,604 -169,155 -402,250 -659,250zm-258 -617c66,60 157,98 258,98 101,0 192,-37 258,-98 66,-60 107,-144 107,-236 0,-92 -41,-176 -107,-236 -66,-60 -157,-98 -258,-98 -101,0 -192,37 -258,98 -66,60 -107,144 -107,236 0,92 41,176 107,236zm3643 -43c-289,0 -550,-107 -739,-281 -189,-173 -306,-413 -306,-677 0,-264 117,-504 306,-677 189,-173 451,-281 739,-281 289,0 550,107 739,281 189,173 306,413 306,677 0,264 -117,504 -306,677 -189,173 -451,281 -739,281zm-307 -676c79,72 187,117 307,117 120,0 229,-45 307,-117 79,-72 127,-172 127,-282 0,-110 -49,-210 -127,-282 -79,-72 -187,-117 -307,-117 -120,0 -229,45 -307,117 -79,72 -127,172 -127,282 0,110 49,210 127,282zm3479 -545c-320,0 -610,-119 -820,-311 -210,-192 -340,-458 -340,-751 0,-293 130,-559 340,-751 210,-192 500,-311 820,-311 320,0 610,119 820,311 210,192 340,458 340,751 0,293 -130,559 -340,751 -210,192 -500,311 -820,311zm-357 -735c91,84 218,135 357,135 139,0 266,-52 357,-135 91,-84 148,-199 148,-327 0,-128 -56,-243 -148,-327 -91,-84 -218,-135 -357,-135 -139,0 -266,52 -357,135 -91,84 -148,199 -148,327 0,128 56,243 148,327zm-28535 -5077c-101,0 -192,-37 -258,-98 -66,-60 -107,-144 -107,-236 0,-92 41,-176 107,-236 66,-60 157,-98 258,-98 101,0 192,37 258,98 66,60 107,144 107,236 0,92 -41,176 -107,236 -66,60 -157,98 -258,98zm2707 3740c-136,0 -260,-51 -350,-133 -89,-82 -145,-195 -145,-320 0,-125 55,-238 145,-320 89,-82 213,-133 350,-133 136,0 260,51 349,133 89,82 145,195 145,320 0,125 -55,238 -145,320 -89,82 -213,133 -349,133zm3532 3085c-172,0 -328,-64 -441,-167 -113,-103 -183,-246 -183,-404 0,-158 70,-301 183,-404 113,-103 269,-167 441,-167 172,0 328,64 441,167 113,103 183,246 183,404 0,158 -70,301 -183,404 -113,103 -269,167 -441,167zm-124 -458c32,29 75,47 124,47 48,0 92,-18 124,-47 32,-29 51,-69 51,-113 0,-44 -20,-84 -51,-113 -32,-29 -75,-47 -124,-47 -48,0 -92,18 -124,47 -32,29 -51,69 -51,113 0,44 20,84 51,113zm4299 2730c-416,0 -754,-309 -754,-690 0,-191 84,-363 221,-488 136,-125 325,-202 533,-202 208,0 397,77 533,202 136,125 221,298 221,488 0,381 -337,690 -754,690zm-255 -690c0,129 114,234 255,234 141,0 255,-105 255,-234 0,-65 -29,-123 -75,-165 -46,-42 -110,-68 -180,-68 -70,0 -134,26 -180,68 -46,42 -75,101 -75,165zm4857 2032c-244,0 -465,-91 -625,-237 -160,-146 -259,-349 -259,-572 0,-223 99,-426 259,-572 160,-146 381,-237 625,-237 244,0 465,91 625,237 160,146 259,349 259,572 0,223 -99,426 -259,572 -160,146 -381,237 -625,237zm-237 -592c61,55 144,90 237,90 93,0 176,-34 237,-90 61,-56 98,-132 98,-217 0,-85 -37,-161 -98,-217 -61,-55 -144,-90 -237,-90 -93,0 -176,34 -237,90 -61,55 -98,132 -98,217 0,85 37,161 98,217zm5022 943c-280,0 -533,-104 -717,-272 -183,-168 -297,-400 -297,-656 0,-256 113,-488 297,-656 183,-168 437,-272 717,-272 280,0 533,104 717,272 183,168 297,400 297,656 0,256 -113,488 -297,656 -183,168 -437,272 -717,272zm-293 -659c75,69 179,111 293,111 115,0 218,-43 293,-111 75,-69 121,-164 121,-269 0,-105 -46,-200 -121,-269 -75,-69 -179,-111 -293,-111 -115,0 -218,43 -293,111 -75,69 -121,164 -121,269 0,105 46,200 121,269zm5012 11c-316,0 -601,-117 -808,-307 -207,-189 -335,-451 -335,-740 0,-289 128,-551 335,-740 207,-189 493,-307 808,-307 316,0 601,117 808,307 207,189 335,451 335,740 0,289 -128,551 -335,740 -207,189 -493,307 -808,307zm-350 -726c90,82 213,133 350,133 137,0 260,-51 350,-133 90,-82 145,-195 145,-320 0,-125 -55,-238 -145,-320 -90,-82 -213,-133 -350,-133 -137,0 -260,51 -350,133 -90,82 -145,195 -145,320 0,125 55,238 145,320zm1809 4134c-351,0 -670,-131 -900,-341 -230,-211 -373,-502 -373,-824 0,-322 142,-613 373,-824 230,-211 549,-341 900,-341 351,0 670,131 900,341 230,211 373,502 373,824 0,322 -142,613 -373,824 -230,211 -549,341 -900,341zm-406 -794c104,95 248,154 406,154 159,0 302,-59 406,-154 104,-95 168,-227 168,-372 0,-145 -64,-277 -168,-372 -104,-95 -248,-154 -406,-154 -159,0 -302,59 -406,154 -104,95 -168,227 -168,372 0,145 64,277 168,372zm-3711 1802c-329,0 -627,-122 -842,-320 -216,-197 -349,-470 -349,-771 0,-301 133,-574 349,-771 216,-197 513,-320 842,-320 329,0 627,122 842,320 216,197 349,470 349,771 0,301 -133,574 -349,771 -216,197 -513,320 -842,320zm-349 -772c89,82 213,132 349,132 136,0 259,-51 349,-132 89,-82 144,-195 144,-319 0,-125 -55,-238 -144,-319 -89,-82 -213,-132 -349,-132 -136,0 -259,51 -349,132 -89,82 -144,195 -144,319 0,125 55,238 144,319zm-3917 1059c-306,0 -584,-114 -785,-298 -201,-184 -325,-438 -325,-719 0,-281 124,-535 325,-719 201,-184 478,-298 785,-298 306,0 584,114 785,298 201,184 325,438 325,719 0,281 -124,535 -325,719 -201,184 -478,298 -785,298zm-291 -750c74,68 177,110 291,110 114,0 217,-42 291,-110 74,-68 121,-162 121,-267 0,-104 -46,-198 -121,-267 -74,-68 -177,-110 -291,-110 -114,0 -217,42 -291,110 -74,68 -121,162 -121,267 0,104 46,198 121,267zm-3974 307c-284,0 -541,-105 -727,-276 -186,-170 -301,-406 -301,-666 0,-260 115,-495 301,-666 186,-170 443,-276 727,-276 284,0 541,105 727,276 186,170 301,406 301,666 0,260 -115,495 -301,666 -186,170 -443,276 -727,276zm-233 -728c60,55 142,89 233,89 91,0 174,-34 233,-89 60,-55 97,-130 97,-214 0,-83 -37,-159 -97,-214 -60,-55 -142,-89 -233,-89 -91,0 -174,34 -233,89 -60,55 -97,130 -97,214 0,83 37,159 97,214zm-3884 -429c-261,0 -498,-97 -669,-254 -171,-157 -277,-374 -277,-613 0,-239 106,-456 277,-613 171,-157 408,-254 669,-254 261,0 498,97 669,254 171,157 277,374 277,613 0,239 -106,456 -277,613 -171,157 -408,254 -669,254zm-176 -706c45,41 107,67 176,67 69,0 131,-25 176,-67 45,-41 73,-98 73,-161 0,-63 -28,-120 -73,-161 -45,-41 -107,-67 -176,-67 -69,0 -131,25 -176,67 -45,41 -73,98 -73,161 0,63 28,120 73,161zm-3645 -1142c-239,0 -455,-89 -612,-232 -157,-143 -253,-341 -253,-560 0,-219 97,-417 253,-560 157,-143 373,-232 612,-232 239,0 455,89 612,232 157,143 253,342 253,560 0,219 -97,417 -253,560 -157,143 -373,232 -612,232zm-118 -684c30,28 72,45 118,45 46,0 88,-17 118,-45 30,-28 49,-66 49,-108 0,-42 -19,-80 -49,-108 -30,-28 -72,-45 -118,-45 -46,0 -88,17 -118,45 -30,28 -49,66 -49,108 0,42 19,80 49,108zm-3280 -1779c-216,0 -412,-80 -554,-210 -142,-130 -230,-309 -230,-507 0,-198 88,-378 230,-507 142,-130 338,-210 554,-210 216,0 412,80 554,210 142,130 230,309 230,507 0,198 -88,378 -230,507 -142,130 -338,210 -554,210zm-2854 -3001c-194,0 -369,-72 -496,-188 -127,-116 -206,-277 -206,-455 0,-178 79,-338 206,-455 127,-116 303,-188 496,-188 194,0 369,72 496,188 127,116 206,277 206,455 0,178 -79,338 -206,455 -127,116 -303,188 -496,188zm-2212 -3434c-171,0 -326,-64 -439,-167 -112,-103 -182,-245 -182,-402 0,-157 69,-299 182,-402 112,-103 267,-167 439,-167 171,0 326,64 439,167 112,103 182,245 182,402 0,157 -69,299 -182,402 -112,103 -267,167 -439,167zm-1493 -3752c-149,0 -284,-55 -381,-145 -98,-89 -158,-213 -158,-349 0,-136 60,-260 158,-349 98,-89 232,-145 381,-145 149,0 284,55 381,145 98,89 158,213 158,349 0,136 -60,260 -158,349 -98,89 -232,145 -381,145zm25737 20120c-351,0 -670,-130 -900,-341 -230,-211 -373,-502 -373,-824 0,-322 142,-613 373,-824 230,-211 549,-341 900,-341 351,0 670,131 900,341 230,211 373,502 373,824 0,322 -142,613 -373,824 -230,211 -549,341 -900,341zm-406 -794c104,95 248,154 406,154 159,0 302,-59 406,-154 104,-95 168,-227 168,-372 0,-145 -64,-277 -168,-372 -104,-95 -248,-154 -406,-154 -159,0 -302,59 -406,154 -104,95 -168,227 -168,372 0,145 64,277 168,372zm-6625 713c-326,0 -621,-121 -835,-317 -214,-196 -346,-466 -346,-765 0,-299 132,-569 346,-765 214,-196 509,-317 835,-317 326,0 621,121 835,317 214,196 346,466 346,765 0,299 -132,569 -346,765 -214,196 -509,317 -835,317zm-341 -769c87,80 208,130 341,130 133,0 254,-49 341,-130 87,-80 141,-191 141,-313 0,-122 -54,-233 -141,-313 -87,-80 -208,-130 -341,-130 -133,0 -254,49 -341,130 -87,80 -141,191 -141,313 0,122 54,233 141,313zm-23225 -22654c-149,0 -284,-55 -381,-145 -98,-89 -158,-213 -158,-349 0,-136 60,-260 158,-349 98,-89 232,-145 381,-145 149,0 284,55 381,145 98,89 158,213 158,349 0,136 -60,260 -158,349 -98,89 -232,145 -381,145zm13241 20612c-275,0 -525,-102 -705,-268 -181,-165 -292,-394 -292,-646 0,-252 112,-481 292,-646 181,-165 430,-268 705,-268 275,0 525,102 705,268 181,165 292,394 292,646 0,252 -112,481 -292,646 -181,165 -430,268 -705,268zm-212 -720c54,50 129,80 212,80 83,0 158,-31 212,-80 54,-50 88,-118 88,-194 0,-76 -34,-144 -88,-194 -54,-50 -129,-80 -212,-80 -83,0 -158,31 -212,80 -54,50 -88,118 -88,194 0,76 34,144 88,194zm5218 2638c-301,0 -573,-112 -770,-292 -197,-181 -319,-430 -319,-705 0,-275 122,-525 319,-705 197,-181 470,-292 770,-292 301,0 573,112 770,292 197,181 319,430 319,705 0,275 -122,525 -319,705 -197,181 -470,292 -770,292zm-277 -744c71,65 169,105 277,105 108,0 206,-40 277,-105 71,-65 115,-154 115,-253 0,-99 -44,-189 -115,-253 -71,-65 -169,-105 -277,-105 -108,0 -206,40 -277,105 -71,65 -115,154 -115,253 0,99 44,189 115,253zm-9184 -4040c-250,0 -477,-93 -641,-243 -164,-150 -265,-358 -265,-587 0,-229 101,-437 265,-587 164,-150 390,-243 641,-243 250,0 477,93 641,243 164,150 265,358 265,587 0,229 -101,437 -265,587 -164,150 -390,243 -641,243zm-147 -695c38,34 90,56 147,56 57,0 109,-21 147,-56 38,-34 61,-82 61,-135 0,-53 -23,-100 -61,-135 -38,-34 -90,-56 -147,-56 -57,0 -109,21 -147,56 -38,34 -61,82 -61,135 0,53 23,100 61,135zm-3559 -2976c-225,0 -428,-83 -576,-218 -147,-135 -239,-321 -239,-527 0,-206 91,-392 239,-527 147,-135 351,-218 576,-218 225,0 428,83 576,218 147,135 239,321 239,527 0,206 -91,392 -239,527 -147,135 -351,218 -576,218zm-82 -671c21,19 50,31 82,31 32,0 61,-12 82,-31 21,-19 34,-46 34,-75 0,-29 -13,-56 -34,-75 -21,-19 -50,-31 -82,-31 -32,0 -61,12 -82,31 -21,19 -34,46 -34,75 0,29 13,56 34,75zm-2696 -3646c-199,0 -380,-74 -511,-194 -131,-120 -212,-285 -212,-468 0,-183 81,-348 212,-468 131,-120 311,-194 511,-194 199,0 380,74 511,194 131,120 212,285 212,468 0,183 -81,348 -212,468 -131,120 -311,194 -511,194zm-1719 -4764c-174,0 -332,-65 -446,-169 -114,-105 -185,-249 -185,-408 0,-160 71,-304 185,-408 114,-105 272,-169 446,-169 174,0 332,65 446,169 114,105 185,249 185,408 0,159 -71,304 -185,408 -114,105 -272,169 -446,169zm16849 -29318c316,0 601,117 808,307 207,189 335,451 335,740 0,289 -128,551 -335,740 -207,189 -493,307 -808,307 -316,0 -601,-117 -808,-307 -207,-189 -335,-451 -335,-740 0,-289 128,-551 335,-740 207,-189 493,-307 808,-307zm-11296 7011c529,0 1008,196 1355,514 347,318 561,756 561,1241 0,485 -215,923 -561,1241 -347,318 -826,514 -1355,514 -529,0 -1008,-196 -1355,-514 -347,-318 -561,-756 -561,-1241 0,-485 215,-923 561,-1241 347,-318 826,-514 1355,-514zm4733 3496c465,0 885,173 1190,451 305,279 493,664 493,1090 0,426 -188,811 -493,1090 -305,279 -725,451 -1190,451 -465,0 -885,-173 -1190,-451 -305,-279 -493,-664 -493,-1090 0,-426 188,-811 493,-1090 305,-279 725,-451 1190,-451zm-574 -5566c465,0 885,173 1190,451 305,279 493,664 493,1090 0,851 -753,1541 -1683,1541 -465,0 -885,-173 -1190,-451 -305,-279 -493,-664 -493,-1090 0,-426 188,-811 493,-1090 305,-279 725,-451 1190,-451zm2633 -3294c387,0 737,144 990,376 253,232 410,553 410,907 0,354 -157,675 -410,907 -253,232 -603,376 -990,376 -387,0 -737,-144 -990,-376 -253,-232 -410,-553 -410,-907 0,-354 157,-675 410,-907 253,-232 603,-376 990,-376zm-5052 -698c465,0 885,173 1190,451 305,279 493,664 493,1090 0,426 -188,811 -493,1090 -305,279 -725,451 -1190,451 -465,0 -885,-173 -1190,-451 -305,-279 -493,-664 -493,-1090 0,-426 188,-811 493,-1090 305,-279 725,-451 1190,-451zm6355 -3392c387,0 737,144 990,376 253,232 410,553 410,907 0,354 -157,675 -410,907 -253,232 -603,376 -990,376 -387,0 -737,-144 -990,-376 -253,-232 -410,-553 -410,-907 0,-354 157,-675 410,-907 253,-232 603,-376 990,-376zm-4972 -1858c529,0 1008,196 1355,514 347,318 561,756 561,1241 0,485 -215,924 -561,1241 -347,318 -826,514 -1355,514 -529,0 -1008,-196 -1355,-514 -347,-318 -561,-756 -561,-1241 0,-485 215,-923 561,-1241 347,-318 826,-514 1355,-514zm4853 -2533c465,0 885,173 1190,451 305,279 493,664 493,1090 0,426 -188,811 -493,1090 -305,279 -725,451 -1190,451 -465,0 -885,-173 -1190,-451 -305,-279 -493,-664 -493,-1090 0,-426 188,-811 493,-1090 305,-279 725,-451 1190,-451zm5525 -1787c387,0 737,144 990,376 253,232 410,553 410,907 0,354 -157,675 -410,907 -253,232 -603,376 -990,376 -387,0 -737,-144 -990,-376 -253,-232 -410,-553 -410,-907 0,-354 157,-675 410,-907 253,-232 603,-376 990,-376zm14579 15915c101,0 192,37 258,98 66,60 107,144 107,236 0,92 -41,176 -107,236 -66,60 -157,98 -258,98 -101,0 -192,-37 -258,-98 -66,-60 -107,-144 -107,-236 0,-92 41,-176 107,-236 66,-60 157,-98 258,-98zm-3550 -1040c142,0 271,53 365,138 93,85 151,204 151,334 0,130 -58,249 -151,334 -93,86 -222,138 -365,138 -142,0 -271,-53 -365,-138 -93,-85 -151,-204 -151,-334 0,-130 58,-249 151,-334 93,-86 222,-138 365,-138zm-3683 -210c184,0 351,68 472,179 121,111 195,263 195,432 0,169 -75,322 -195,432 -121,111 -288,179 -472,179 -184,0 -351,-68 -472,-179 -121,-111 -195,-263 -195,-432 0,-169 75,-322 195,-432 121,-111 288,-179 472,-179zm-3590 619c226,0 431,84 579,220 148,136 240,323 240,530 0,207 -92,394 -240,530 -148,136 -353,220 -579,220 -226,0 -431,-84 -579,-220 -148,-136 -240,-323 -240,-530 0,-207 92,-394 240,-530 148,-136 353,-220 579,-220zm-3271 1413c268,0 510,99 686,260 176,161 284,383 284,628 0,245 -109,467 -284,628 -176,161 -418,260 -686,260 -268,0 -510,-99 -686,-260 -176,-161 -284,-383 -284,-628 0,-245 109,-467 284,-628 176,-161 418,-260 686,-260zm-2754 2103c310,0 590,115 793,301 203,186 329,443 329,726 0,284 -126,540 -329,726 -203,186 -483,301 -793,301 -310,0 -590,-115 -793,-301 -203,-186 -329,-443 -329,-726 0,-284 126,-540 329,-726 203,-186 483,-301 793,-301zm-2070 2652c351,0 670,131 900,341 230,211 373,502 373,824 0,322 -142,613 -373,824 -230,211 -549,341 -900,341 -351,0 -670,-130 -900,-341 -230,-211 -373,-502 -373,-824 0,-322 142,-613 373,-824 230,-211 549,-341 900,-341zm18075 -7861c136,0 260,51 349,133 89,82 145,195 145,320 0,125 -55,238 -145,320 -89,82 -213,133 -349,133 -136,0 -260,-51 -349,-133 -89,-82 -145,-195 -145,-320 0,-125 55,-238 145,-320 89,-82 213,-133 350,-133zm-3389 -985c172,0 328,64 441,167 113,103 183,246 183,404 0,158 -70,301 -183,404 -113,103 -269,167 -441,167 -172,0 -328,-64 -441,-167 -113,-103 -183,-246 -183,-404 0,-158 70,-301 183,-404 113,-103 269,-167 441,-167zm-3512 -320c208,0 397,77 533,202 136,125 221,298 221,488 0,381 -337,690 -754,690 -416,0 -754,-309 -754,-690 0,-191 84,-363 221,-488 136,-125 325,-202 533,-202zm-3482 346c244,0 465,91 625,237 160,146 259,349 259,572 0,223 -99,426 -259,572 -160,146 -381,237 -625,237 -244,0 -465,-91 -625,-237 -160,-146 -259,-349 -259,-572 0,-223 99,-426 259,-572 160,-146 381,-237 625,-237zm-3299 1001c280,0 533,104 717,272 183,168 297,400 297,656 0,256 -113,488 -297,656 -183,168 -437,272 -717,272 -280,0 -533,-104 -717,-272 -183,-168 -297,-400 -297,-656 0,-256 113,-488 297,-656 183,-168 437,-272 717,-272zm-5516 402c316,0 601,117 808,307 207,189 335,451 335,740 0,289 -128,551 -335,740 -207,189 -493,307 -808,307 -316,0 -601,-117 -808,-307 -207,-189 -335,-451 -335,-740 0,-289 128,-551 335,-740 207,-189 493,-307 808,-307zm27 3336c351,0 670,131 900,341 230,211 373,502 373,824 0,322 -142,613 -373,824 -230,211 -549,341 -900,341 -351,0 -670,-130 -900,-341 -230,-211 -373,-502 -373,-824 0,-322 142,-613 373,-824 230,-211 549,-341 900,-341zm25392 -2106c101,0 192,37 258,98 66,60 107,144 107,236 0,92 -41,176 -107,236 -66,60 -157,98 -258,98 -101,0 -192,-37 -258,-98 -66,-60 -107,-144 -107,-236 0,-92 41,-176 107,-236 66,-60 157,-98 258,-98zm-2706 -2118c132,0 252,49 338,128 87,79 140,189 140,310 0,121 -54,230 -140,310 -87,79 -206,128 -338,128 -132,0 -252,-49 -338,-128 -87,-79 -140,-189 -140,-310 0,-121 54,-230 140,-310 87,-79 206,-128 338,-128zm-3063 -1629c163,0 311,61 418,159 107,98 173,233 173,383 0,150 -66,285 -173,383 -107,98 -255,159 -418,159 -163,0 -311,-61 -418,-159 -107,-98 -173,-234 -173,-383 0,-150 66,-285 173,-383 107,-98 255,-159 418,-159zm-3318 -1085c195,0 371,72 499,189 128,117 207,278 207,457 0,178 -79,340 -207,457 -128,117 -304,189 -499,189 -195,0 -371,-72 -499,-189 -128,-117 -207,-278 -207,-457 0,-178 79,-340 207,-457 128,-117 304,-189 499,-189zm-3459 -506c226,0 431,84 579,220 148,136 240,323 240,530 0,207 -92,394 -240,530 -148,136 -353,220 -579,220 -226,0 -431,-84 -579,-220 -148,-136 -240,-323 -240,-530 0,-207 92,-394 240,-530 148,-136 353,-220 579,-220zm-3481 77c257,0 490,96 659,250 169,155 273,368 273,604 0,236 -104,449 -273,604 -169,155 -402,250 -659,250 -257,0 -490,-96 -659,-250 -169,-155 -273,-368 -273,-604 0,-236 104,-449 273,-604 169,-155 402,-250 659,-250zm-3385 660c289,0 550,107 739,281 189,173 306,413 306,677 0,264 -117,504 -306,677 -189,173 -451,281 -739,281 -289,0 -550,-107 -739,-281 -189,-173 -306,-413 -306,-677 0,-264 117,-504 306,-677 189,-173 451,-281 739,-281zm-3172 1221c320,0 610,119 820,311 210,192 340,458 340,751 0,293 -130,559 -340,751 -210,192 -500,311 -820,311 -320,0 -610,-119 -820,-311 -210,-192 -340,-458 -340,-751 0,-293 130,-559 340,-751 210,-192 500,-311 820,-311zm28892 5812c101,0 192,37 258,98 66,60 107,144 107,236 0,92 -41,176 -107,236 -66,60 -157,98 -258,98 -101,0 -192,-37 -258,-98 -66,-60 -107,-144 -107,-236 0,-92 41,-176 107,-236 66,-60 157,-98 258,-98zm-2707 -3740c136,0 260,51 349,133 89,82 145,195 145,320 0,125 -55,238 -145,320 -89,82 -213,133 -349,133 -136,0 -260,-51 -350,-133 -89,-82 -145,-195 -145,-320 0,-125 55,-238 145,-320 89,-82 213,-133 350,-133zm-3532 -3085c172,0 328,64 441,167 113,103 183,246 183,404 0,158 -70,301 -183,404 -113,103 -269,167 -441,167 -172,0 -328,-64 -441,-167 -113,-103 -183,-246 -183,-404 0,-158 70,-301 183,-404 113,-103 269,-167 441,-167zm-4175 -2272c416,0 754,309 754,690 0,191 -84,363 -221,488 -136,125 -325,202 -533,202 -208,0 -397,-77 -533,-202 -136,-125 -221,-298 -221,-488 0,-381 337,-690 754,-690zm-4602 -1341c244,0 465,91 625,237 160,146 259,349 259,572 0,223 -99,426 -259,572 -160,146 -381,237 -625,237 -244,0 -465,-91 -625,-237 -160,-146 -259,-349 -259,-572 0,-223 99,-426 259,-572 160,-146 381,-237 625,-237zm-4786 -350c280,0 533,104 717,272 183,168 297,400 297,656 0,256 -113,488 -297,656 -183,168 -437,272 -717,272 -280,0 -533,-104 -717,-272 -183,-168 -297,-400 -297,-656 0,-256 113,-488 297,-656 183,-168 437,-272 717,-272zm-4718 648c316,0 601,117 808,307 207,189 335,451 335,740 0,289 -128,551 -335,740 -207,189 -493,307 -808,307 -316,0 -601,-117 -808,-307 -207,-189 -335,-451 -335,-740 0,-289 128,-551 335,-740 207,-189 493,-307 808,-307zm-2087 -3407c351,0 670,131 900,341 230,211 373,502 373,824 0,322 -142,613 -373,824 -230,211 -549,341 -900,341 -351,0 -670,-130 -900,-341 -230,-211 -373,-502 -373,-824 0,-322 142,-613 373,-824 230,-211 549,-341 900,-341zm4746 -1008c329,0 627,122 842,320 216,197 349,470 349,771 0,301 -133,574 -349,771 -216,197 -513,320 -842,320 -329,0 -627,-122 -842,-320 -216,-197 -349,-470 -349,-771 0,-301 133,-574 349,-771 216,-197 513,-320 842,-320zm4266 -287c306,0 584,114 785,298 201,184 325,438 325,719 0,281 -124,535 -325,719 -201,184 -478,298 -785,298 -306,0 -584,-114 -785,-298 -201,-184 -325,-438 -325,-719 0,-281 124,-535 325,-719 201,-184 478,-298 785,-298zm4265 442c284,0 541,105 727,276 186,170 301,406 301,666 0,260 -115,495 -301,666 -186,170 -443,276 -727,276 -284,0 -541,-105 -727,-276 -186,-170 -301,-406 -301,-666 0,-260 115,-495 301,-666 186,-170 443,-276 727,-276zm4118 1157c261,0 498,97 669,254 171,157 277,374 277,613 0,239 -106,456 -277,613 -171,157 -408,254 -669,254 -261,0 -498,-97 -669,-254 -171,-157 -277,-374 -277,-613 0,-239 106,-456 277,-613 171,-157 408,-254 669,-254zm3821 1848c239,0 455,89 612,232 157,143 253,341 253,560 0,219 -97,417 -253,560 -157,143 -373,232 -612,232 -239,0 -455,-89 -612,-232 -157,-143 -253,-342 -253,-560 0,-219 97,-417 253,-560 157,-143 373,-232 612,-232zm3398 2464c216,0 412,80 554,210 142,130 230,309 230,507 0,198 -88,378 -230,507 -142,130 -338,210 -554,210 -216,0 -412,-80 -554,-210 -142,-130 -230,-309 -230,-507 0,-198 88,-378 230,-507 142,-130 338,-210 554,-210zm2854 3001c194,0 369,72 496,188 127,116 206,277 206,455 0,178 -79,338 -206,455 -127,116 -303,188 -496,188 -194,0 -369,-72 -496,-188 -127,-116 -206,-277 -206,-455 0,-178 79,-338 206,-455 127,-116 303,-188 496,-188zm2212 3434c171,0 326,64 439,167 112,103 182,245 182,402 0,157 -69,299 -182,402 -112,103 -267,167 -439,167 -171,0 -327,-64 -439,-167 -112,-103 -182,-245 -182,-402 0,-157 69,-299 182,-402 112,-103 267,-167 439,-167zm1493 3752c149,0 284,55 381,145 98,89 158,213 158,349 0,136 -60,260 -158,349 -98,89 -232,145 -381,145 -149,0 -284,-55 -381,-145 -98,-89 -158,-213 -158,-349 0,-136 60,-260 158,-349 98,-89 232,-145 381,-145zm-18706 -20039c326,0 621,121 835,317 214,196 346,466 346,765 0,299 -132,569 -346,765 -214,196 -509,317 -835,317 -326,0 -621,-121 -835,-317 -214,-196 -346,-466 -346,-765 0,-299 132,-569 346,-765 214,-196 509,-317 835,-317zm23566 23423c149,0 284,55 381,145 98,89 158,213 158,349 0,136 -60,260 -158,349 -98,89 -232,145 -381,145 -149,0 -284,-55 -381,-145 -98,-89 -158,-213 -158,-349 0,-136 60,-260 158,-349 98,-89 232,-145 381,-145zm-13241 -20612c275,0 525,102 705,268 181,165 292,394 292,646 0,252 -112,481 -292,646 -181,165 -430,268 -705,268 -275,0 -525,-102 -705,-268 -181,-165 -292,-394 -292,-646 0,-252 112,-481 292,-646 181,-165 430,-268 705,-268zm-5006 -1918c301,0 573,112 770,292 197,181 319,430 319,705 0,275 -122,525 -319,705 -197,181 -470,292 -770,292 -301,0 -573,-112 -770,-292 -197,-181 -319,-430 -319,-705 0,-275 122,-525 319,-705 197,-181 470,-292 770,-292zm9461 4785c250,0 477,93 641,243 164,150 265,358 265,587 0,229 -101,437 -265,587 -164,150 -390,243 -641,243 -250,0 -477,-93 -641,-243 -164,-150 -265,-358 -265,-587 0,-229 101,-437 265,-587 164,-150 390,-243 641,-243zm3706 3671c225,0 428,83 576,218 147,135 239,321 239,527 0,206 -91,392 -239,527 -147,135 -351,218 -576,218 -225,0 -428,-83 -576,-218 -147,-135 -239,-321 -239,-527 0,-206 91,-392 239,-527 147,-135 351,-218 576,-218zm2778 4317c199,0 380,74 511,194 131,120 212,285 212,468 0,183 -81,348 -212,468 -131,120 -311,194 -511,194 -199,0 -380,-74 -511,-194 -131,-120 -212,-285 -212,-468 0,-183 81,-348 212,-468 131,-120 311,-194 511,-194zm1719 4764c174,0 332,65 446,169 114,105 185,249 185,408 0,159 -71,304 -185,408 -114,105 -272,169 -446,169 -174,0 -332,-65 -446,-169 -114,-105 -185,-249 -185,-408 0,-160 71,-304 185,-408 114,-105 272,-169 446,-169z"/></g><text x="0" y="60015" fill="#000000" font-size="5px" font-weight="bold" font-family="'Helvetica Neue', Helvetica, Arial-Unicode, Arial, Sans-serif">Created by Olena Panasovska</text><text x="0" y="60020" fill="#000000" font-size="5px" font-weight="bold" font-family="'Helvetica Neue', Helvetica, Arial-Unicode, Arial, Sans-serif">from the Noun Project</text></svg>